<svg width="690" height="252" viewBox="0 0 690 252" fill="none" xmlns="http://www.w3.org/2000/svg" preserveAspectRatio="none">
<path d="M689.81 175.15V127.79C689.81 111.49 685.66 98.53 666.81 98.53C657.25 98.53 651.02 100.9 643.96 104.8C643.875 104.695 643.785 104.595 643.69 104.5C642.08 102.639 640.046 101.192 637.76 100.28C637.56 100.2 637.32 100.14 637.1 100.07C635.867 99.6038 634.595 99.2458 633.3 99H633C631.953 98.7808 630.895 98.6206 629.83 98.52C628.72 98.43 626.48 98.52 626.48 98.52C626.06 98.52 625.69 98.52 625.28 98.52C624.2 98.52 623.11 98.52 621.92 98.52C617.473 98.5721 613.034 98.9061 608.63 99.52C603.74 100.11 598.893 101.015 594.12 102.23C590.93 103.07 590.38 103.91 590.38 106V175.23C590.374 175.982 590.659 176.706 591.175 177.253C591.692 177.799 592.399 178.124 593.15 178.16H605.95C606.7 178.121 607.406 177.796 607.922 177.25C608.438 176.704 608.724 175.981 608.72 175.23V117.76C612.587 115.499 616.981 114.295 621.46 114.27C629.21 114.27 631.01 117.06 631.01 127.79V175.15C631.006 175.901 631.292 176.624 631.808 177.17C632.324 177.716 633.03 178.041 633.78 178.08H646.52C647.271 178.044 647.978 177.719 648.495 177.173C649.011 176.626 649.296 175.902 649.29 175.15V127.79C649.322 124.448 649.138 121.108 648.74 117.79C652.718 115.677 657.12 114.485 661.62 114.3C669.37 114.3 671.62 117.09 671.62 127.82V175.18C671.614 175.932 671.899 176.656 672.415 177.203C672.932 177.749 673.639 178.074 674.39 178.11H687.13C687.879 178.071 688.584 177.745 689.098 177.199C689.613 176.653 689.896 175.93 689.89 175.18" fill="#21314D"/>
<path d="M542.81 178.73C520.98 178.73 510.1 163.51 510.1 143.73V132.45C510.1 112.61 520.98 98.45 542.81 98.45C564.64 98.45 576 113.13 576 133V144.2C576 164 564.64 178.73 542.81 178.73ZM557.68 133C557.68 121.63 552.54 114.28 542.81 114.28C533.08 114.28 528.45 121.11 528.45 132.49V143.72C528.45 155.09 533.07 162.96 542.81 162.96C552.55 162.96 557.68 155.61 557.68 144.24V133Z" fill="#21314D"/>
<path d="M495.08 177.35C489.253 178.654 483.29 179.252 477.32 179.13C459.42 179.13 445.93 168 445.93 145.39V132.49C445.93 109.89 459.42 98.81 477.32 98.83C483.292 98.7279 489.254 99.3423 495.08 100.66C497.42 101.21 497.97 102.05 497.97 104.27V113.27C497.97 114.66 496.86 115.35 495.49 115.35H495.08C489.08 115.02 486.16 114.69 477.21 114.68C470.74 114.68 464.1 118.08 464.1 132.51V145.4C464.1 159.83 470.85 163.58 477.32 163.59C483.256 163.724 489.193 163.406 495.08 162.64H495.49C496.86 162.64 497.97 163.34 497.97 164.73V173.73C498 176 497.42 176.8 495.08 177.35Z" fill="#21314D"/>
<path d="M423.01 178.73C429.461 178.73 434.69 173.501 434.69 167.05C434.69 160.599 429.461 155.37 423.01 155.37C416.559 155.37 411.33 160.599 411.33 167.05C411.33 173.501 416.559 178.73 423.01 178.73Z" fill="#21314D"/>
<path d="M413.94 98.78C407.615 98.6008 401.286 98.828 394.99 99.46C389.721 100.132 384.514 101.226 379.42 102.73C377.42 103.35 376.66 104.32 376.66 106.25V175.18C376.657 175.926 376.942 176.645 377.457 177.185C377.971 177.726 378.675 178.046 379.42 178.08H392.12C392.865 178.046 393.569 177.726 394.083 177.185C394.598 176.645 394.883 175.926 394.88 175.18L395.19 118.56C395.196 118.356 395.264 118.158 395.385 117.993C395.507 117.829 395.676 117.705 395.87 117.64C398.83 116.268 402.009 115.425 405.26 115.15C408.372 114.869 411.496 114.759 414.62 114.82C416.92 114.82 416.7 112.75 416.7 111.23V103.41C416.7 101.9 416.7 98.77 413.94 98.78Z" fill="#21314D"/>
<path d="M354.11 106.86C347.66 100.69 338.68 98.8 329.63 98.74C322.244 99.0126 314.89 99.845 307.63 101.23C306.03 101.57 304.92 102.46 304.89 104.17C304.89 104.93 304.89 107.71 304.89 110.17C304.897 111.921 305.198 113.659 305.78 115.31C306.113 115.745 306.548 116.092 307.047 116.318C307.546 116.545 308.093 116.645 308.64 116.61C312.14 116.21 328.95 114.55 331.27 114.61C333.75 114.68 337.01 114.93 339.27 116.16C341.515 117.492 343.157 119.643 343.85 122.16C344.187 125.425 344.26 128.713 344.07 131.99C343.87 132.13 333.7 131.87 328.82 132.19C318.25 132.88 305.05 135.28 300.82 145.65C298.82 150.65 298.67 156.45 299.56 161.65C300.004 164.406 301.076 167.023 302.692 169.3C304.308 171.576 306.425 173.451 308.88 174.78C315.2 178.48 322.88 178.91 330.04 178.63C348.79 177.91 359.94 175.47 361.37 174.52C361.79 174.216 362.122 173.806 362.331 173.331C362.54 172.857 362.619 172.335 362.56 171.82V128.46L362.61 124.57C362.49 116.59 357.37 110 354.11 106.86ZM344.06 162.76C340.092 163.416 336.081 163.784 332.06 163.86C329.52 163.86 321.8 163.61 319.51 160.66C318.11 158.84 318.13 154.78 318.51 152.2C318.68 151.025 319.142 149.912 319.855 148.963C320.568 148.014 321.509 147.26 322.59 146.77C325.42 145.38 331.47 145.07 335.35 145.07C337.53 145.07 343.81 145.01 344.04 145.07C344.09 145.08 344.08 162.7 344.06 162.76Z" fill="#21314D"/>
<path d="M271.47 132H242.35V131.45C242.35 120.52 248.53 114.45 257.05 114.45C265.57 114.45 271.47 120.67 271.47 131.45V132ZM289.74 141.54V133.8C289.74 113.2 278.2 98.68 257.05 98.68C235.9 98.68 224.05 112.23 224.05 133.8V144C224.05 171.24 243.55 178.7 257.29 178.7C269.65 178.7 275.01 178.01 283.94 176.35C286.41 175.94 286.83 174.97 286.83 172.76V163.63C286.83 162.25 285.73 161.56 284.35 161.56H284C278.23 162.11 268.75 162.94 258.72 162.94C245.54 162.94 242.24 153.4 242.24 145.38V145H287C288.93 145 289.75 143.75 289.75 141.54" fill="#21314D"/>
<path d="M209.14 178.08H196.23C195.479 178.052 194.768 177.734 194.247 177.193C193.725 176.653 193.432 175.931 193.43 175.18V129.76C193.36 117.76 190.93 114.23 181.69 114.29C177.11 114.29 171.98 116.24 166.34 119.05C166.144 119.114 165.973 119.236 165.85 119.401C165.726 119.566 165.656 119.764 165.65 119.97V175.18C165.645 175.932 165.351 176.654 164.827 177.194C164.304 177.734 163.592 178.052 162.84 178.08H149.93C149.179 178.052 148.468 177.734 147.947 177.193C147.425 176.653 147.132 175.931 147.13 175.18V75.78C147.138 75.0435 147.437 74.3401 147.961 73.823C148.486 73.306 149.193 73.0173 149.93 73.02H162.84C163.577 73.0173 164.286 73.3056 164.812 73.8224C165.338 74.3392 165.639 75.0426 165.65 75.78V104.35C170.98 101.18 176.87 98.73 186.83 98.73C206.2 98.73 211.95 112.73 211.95 129.73V175.15C211.956 175.908 211.665 176.639 211.14 177.186C210.615 177.733 209.898 178.054 209.14 178.08Z" fill="#21314D"/>
<path d="M86 213.49C79.8387 201.315 75.6081 188.255 73.46 174.78C72.5237 169.589 72.1882 164.308 72.46 159.04C72.82 155.13 77.79 154.65 79.09 157.44C80.2008 160.292 81.1425 163.207 81.91 166.17C88.91 188.5 104.42 207.83 124.19 220.17C145.724 233.444 171.269 238.649 196.28 234.86C197.93 234.61 200.61 234.22 202.46 233.99C206.7 233.47 208.78 239.32 204.03 241.3C202.7 241.85 193.64 244.92 190.39 245.85C177.102 249.763 163.301 251.654 149.45 251.46C123.21 250.86 98.15 237.3 86.01 213.46" fill="#6CB0E2"/>
<path d="M54.68 164.07C52 92.18 110.35 31.64 185 28.85C196.26 28.416 207.531 29.3393 218.57 31.6C219.448 31.7483 220.349 31.5788 221.113 31.1219C221.877 30.6649 222.453 29.9506 222.737 29.1071C223.022 28.2637 222.996 27.3465 222.665 26.5204C222.333 25.6942 221.718 25.0133 220.93 24.6C200.891 15.2262 178.896 10.7924 156.79 11.67C82.37 14.41 24.2 74.77 26.88 146.43C28.22 182.06 44.35 213.78 69.38 236.33C73.49 240.03 80.83 238.25 75.77 230.71C62.92 211.58 55.6 188.52 54.68 164.07Z" fill="#6CB0E2"/>
<path d="M26.88 146.43C24.49 82.57 70.42 27.69 133.13 14.53C140.923 12.8869 148.841 11.9133 156.8 11.62H157.39C160.97 11.62 162.15 9.68 162.31 7.69C162.47 5.7 160.94 3.69 157.83 3.14C149.43 1.62 135.14 -0.359999 124 0.060001C51.64 2.76 -2.57 55.87 0.0899994 127C1.85 174 30.24 215.3 69.38 236.34C68.46 235.52 67.57 234.68 66.69 233.84C43.2 211.47 28.17 180.77 26.88 146.43Z" fill="#005C9E"/>
</svg>
